HIERARCHY
ROOT hip
{
	OFFSET 0.000000 0.000000 0.000000 
	CHANNELS 6 Xposition Yposition Zposition Xrotation Zrotation Yrotation
	JOINT abdomen
	{
		OFFSET 0.000000 3.402643 0.000000 
		CHANNELS 3 Xrotation Zrotation Yrotation
		JOINT chest
		{
			OFFSET 0.000000 8.438565 -0.680529 
			CHANNELS 3 Xrotation Zrotation Yrotation
			JOINT neck
			{
				OFFSET 0.000000 10.207942 -0.272212 
				CHANNELS 3 Xrotation Zrotation Yrotation
				JOINT head
				{
					OFFSET 0.000000 3.130431 0.000000 
					CHANNELS 3 Xrotation Zrotation Yrotation
					End Site
					{
						OFFSET 0.000000 3.130435 0.000000 
					}
				}
			}
			JOINT lCollar
			{
				OFFSET 3.470700 6.669187 -0.816635 
				CHANNELS 3 Yrotation Zrotation Xrotation
				JOINT lShldr
				{
					OFFSET 3.198488 0.000000 0.000000 
					CHANNELS 3 Zrotation Yrotation Xrotation
					JOINT lForeArm
					{
						OFFSET 10.139888 0.000000 0.000000 
						CHANNELS 3 Yrotation Zrotation Xrotation
						JOINT lHand
						{
							OFFSET 8.370511 0.000000 0.000000 
							CHANNELS 3 Zrotation Yrotation Xrotation
							End Site
							{
								OFFSET 4.083176 0.000000 0.000000 
							}
						}
					}
				}
			}
			JOINT rCollar
			{
				OFFSET -3.470700 6.669187 -0.816635 
				CHANNELS 3 Yrotation Zrotation Xrotation
				JOINT rShldr
				{
					OFFSET -3.198488 0.000000 0.000000 
					CHANNELS 3 Zrotation Yrotation Xrotation
					JOINT rForeArm
					{
						OFFSET -10.139888 0.000000 0.000000 
						CHANNELS 3 Yrotation Zrotation Xrotation
						JOINT rHand
						{
							OFFSET -8.370511 0.000000 0.000000 
							CHANNELS 3 Zrotation Yrotation Xrotation
							End Site
							{
								OFFSET -4.083176 0.000000 0.000000 
							}
						}
					}
				}
			}
		}
	}
	JOINT lThigh
	{
		OFFSET 5.308129 -1.633274 1.361059 
		CHANNELS 3 Xrotation Zrotation Yrotation
		JOINT lShin
		{
			OFFSET -2.041588 -20.007561 0.000000 
			CHANNELS 3 Xrotation Zrotation Yrotation
			JOINT lFoot
			{
				OFFSET 0.000000 -19.190928 -1.224953 
				CHANNELS 3 Xrotation Yrotation Zrotation
				End Site
				{
					OFFSET 0.000000 -2.449906 4.627600 
				}
			}
		}
	}
	JOINT rThigh
	{
		OFFSET -5.308129 -1.633274 1.361059 
		CHANNELS 3 Xrotation Zrotation Yrotation
		JOINT rShin
		{
			OFFSET 2.041588 -20.007561 0.000000 
			CHANNELS 3 Xrotation Zrotation Yrotation
			JOINT rFoot
			{
				OFFSET 0.000000 -19.190928 -1.224953 
				CHANNELS 3 Xrotation Yrotation Zrotation
				End Site
				{
					OFFSET 0.000000 -2.449906 4.627600 
				}
			}
		}
	}
}
MOTION
Frames: 11
Frame Time: 0.016667
-2.056689 35.789722 3.086245 107.500999 -1.776520 -3.301090 -25.550100 -3.978940 -7.567710 27.846800 -3.632590 -4.722500 10.111933 -11.817101 -15.857332 12.189000 3.298800 5.280690 2.000000 -2.000000 0.000000 54.162998 -28.839899 70.635902 24.394800 -0.339359 0.056527 0.070194 -0.069414 -162.556000 -2.000000 2.000000 0.000000 50.356800 7.909680 -163.184006 -74.424400 0.251559 0.131702 -0.055945 0.022216 -144.880997 -55.935944 -4.475173 -4.163917 43.815628 3.822829 2.660476 11.549825 12.153400 -1.967164 -56.576660 3.878531 -1.320201 50.588791 -3.432271 -3.006236 36.136211 5.615007 -1.696813 
-2.184530 35.807472 3.085064 107.417999 -1.100480 -3.625690 -25.476200 -4.759760 -7.995540 27.846201 -4.630410 -5.211220 10.525095 -11.617658 -16.421061 12.405800 3.451140 5.501360 2.000000 -2.000000 0.000000 53.428200 -29.045700 71.582901 24.912399 -0.338843 0.057649 0.068884 -0.066615 -161.453003 -2.000000 2.000000 0.000000 50.852699 4.565900 -161.453995 -73.877502 0.252815 0.131346 -0.056156 0.023678 -145.408005 -55.035694 -4.229021 -3.133303 47.040600 3.881170 2.781860 11.418067 10.111244 -1.733404 -56.973541 4.208617 -0.510629 47.514381 -3.493171 -2.869139 35.815208 4.963605 -1.184974 
-2.300866 35.828369 3.131550 107.325996 -0.532375 -3.792130 -25.404200 -5.434360 -8.388630 27.845900 -5.473260 -5.631180 10.898736 -11.640341 -16.975534 12.641500 3.525780 5.673640 2.000000 -2.000000 0.000000 52.626099 -29.466101 72.183098 25.390900 -0.338358 0.058683 0.067175 -0.062736 -159.938995 -2.000000 2.000000 0.000000 50.782799 0.910374 -160.046997 -73.975098 0.252591 0.131411 -0.056651 0.026783 -146.531006 -53.868618 -4.070416 -2.378189 49.864525 3.910174 2.886679 11.157698 8.717875 -1.558134 -56.930077 4.532493 0.360266 43.354530 -3.610735 -2.699627 34.663414 3.705129 -0.263094 
-2.414160 35.846790 3.212974 107.254997 -0.168016 -3.785260 -25.313000 -5.960960 -8.746420 27.884300 -6.160600 -5.996400 11.217070 -11.879451 -17.561100 12.905500 3.513090 5.795770 2.000000 -2.000000 0.000000 51.960999 -29.876600 72.661301 25.625299 -0.338117 0.059188 0.065589 -0.058865 -158.445007 -2.000000 2.000000 0.000000 50.108101 -2.959620 -158.796005 -74.570801 0.251222 0.131796 -0.057419 0.030980 -148.054993 -52.800114 -3.904089 -1.875724 52.638359 3.948020 2.996558 11.104106 7.759377 -1.423812 -56.562511 4.939242 1.172436 38.375221 -3.779772 -2.405531 32.830864 1.868376 0.922035 
-2.531374 35.861397 3.302944 107.196999 -0.008662 -3.595060 -25.189899 -6.316600 -9.091630 27.979200 -6.604840 -6.279460 11.438816 -12.226584 -18.176456 13.198300 3.451780 5.853200 2.000000 -2.000000 0.000000 51.539799 -30.111300 73.178703 25.508101 -0.338238 0.058935 0.064608 -0.066078 -157.468994 -2.000000 2.000000 0.000000 48.750301 -6.995600 -157.546005 -75.410698 0.249287 0.132315 -0.058462 0.035874 -149.841995 -51.729359 -3.680315 -1.580764 55.306587 3.940924 3.095910 11.393838 6.963375 -1.273170 -55.641609 5.389228 2.070905 32.580666 -3.994455 -2.070686 30.402876 -0.358583 2.180768 
-2.655878 35.874313 3.377177 107.119003 0.034495 -3.276060 -25.072399 -6.519260 -9.444160 28.110001 -6.796540 -6.514890 11.534311 -12.522774 -18.768490 13.471800 3.409980 5.853490 2.000000 -2.000000 0.000000 51.362301 -30.141100 73.842697 25.078400 -0.338676 0.058008 0.064331 -0.065334 -157.184998 -2.000000 2.000000 0.000000 46.758202 -11.071100 -156.100006 -76.270103 0.247299 0.132817 -0.059889 0.041606 -151.951004 -50.902252 -3.460485 -1.515244 58.212894 3.886752 3.216621 11.804924 6.161525 -1.096921 -54.267620 5.798438 2.930403 26.463081 -4.252393 -1.671689 27.524647 -2.733197 3.248748 
-2.784819 35.890266 3.420282 106.982002 0.034228 -2.865980 -24.952801 -6.670850 -9.799170 28.218800 -6.833560 -6.708560 11.556949 -12.718792 -19.290176 13.706500 3.397510 5.846250 2.000000 -2.000000 0.000000 51.360298 -30.014601 74.584999 24.482700 -0.339272 0.056718 0.064512 -0.065822 -157.371002 -2.000000 2.000000 0.000000 44.277802 -14.952000 -154.264008 -76.924400 0.245780 0.133179 -0.071600 0.048273 -154.431000 -50.297733 -3.308609 -1.687338 61.278313 3.760325 3.318957 12.368734 5.178249 -0.869240 -52.586727 6.236428 3.523090 20.407642 -4.673598 -1.250149 24.704130 -4.947429 4.091986 
-2.908718 35.912960 3.426180 106.719002 0.058996 -2.413210 -24.835100 -6.842160 -10.123800 28.278299 -6.861650 -6.904980 11.589273 -12.833743 -19.758438 13.892200 3.385610 5.845810 2.000000 -2.000000 0.000000 51.465401 -29.771000 75.395699 23.857700 -0.339882 0.055357 0.064849 -0.066717 -157.712997 -2.000000 2.000000 0.000000 41.474800 -18.384600 -151.996002 -77.158699 0.245235 0.133304 -0.074031 0.055389 -157.117004 -49.780754 -3.304638 -2.027353 64.217468 3.592975 3.427289 13.137849 3.947722 -0.572161 -50.374176 6.812729 3.116368 14.399140 -5.625642 -0.801067 22.849922 -6.031146 4.802592 
-3.016989 35.943626 3.395568 106.307999 0.175503 -1.976800 -24.720900 -7.059890 -10.406100 28.269100 -6.900520 -7.075040 11.646574 -12.993994 -20.198111 14.048300 3.354810 5.859700 2.000000 -2.000000 0.000000 51.570301 -29.488300 76.328499 23.320601 -0.340395 0.054183 0.065201 -0.067637 -158.063995 -2.000000 2.000000 0.000000 38.485500 -21.143801 -149.421005 -76.758301 0.246166 0.133088 -0.076517 0.061728 -159.548996 -49.368011 -3.480095 -2.380899 67.067085 3.407183 3.512190 13.806211 2.574969 -0.243004 -47.784893 8.065902 2.185012 8.854456 -8.122655 -0.429222 22.683926 -5.596383 6.064915 
-3.104579 35.979687 3.333322 105.806000 0.399067 -1.614490 -24.604500 -7.328710 -10.600900 28.211700 -6.998250 -7.227400 11.723748 -13.209522 -20.644598 14.204100 3.295190 5.878030 2.000000 -2.000000 0.000000 51.596600 -29.264299 77.393097 23.056900 -0.340643 0.053605 0.065559 -0.058788 -158.416000 -2.000000 2.000000 0.000000 35.495399 -23.131500 -146.817001 -75.625504 0.248790 0.132443 -0.078435 0.066142 -161.266998 -49.108372 -3.762537 -2.600024 69.308746 3.211895 3.575786 14.637208 1.328371 0.108613 -47.387535 8.304045 1.335373 8.812120 -8.095659 -0.416887 21.856651 -4.748034 5.604097 
-3.172870 36.014626 3.246372 105.289001 0.659603 -1.356730 -24.514099 -7.633740 -10.724300 28.116699 -7.203140 -7.360680 11.799080 -13.433908 -21.138449 14.389000 3.216020 5.884410 2.000000 -2.000000 0.000000 51.496101 -29.216000 78.457497 23.154600 -0.340552 0.053819 0.065862 -0.059551 -158.709000 -2.000000 2.000000 0.000000 32.700100 -24.347099 -144.447006 -73.750504 0.253106 0.131262 -0.079490 0.068426 -162.166000 -48.951332 -4.025577 -2.613711 70.930603 3.070949 3.627901 15.252528 0.478837 0.350371 -46.781376 8.793584 0.564831 9.299278 -8.465664 -0.476279 22.912878 -3.248335 5.493365 
